<?xml version="1.0" encoding="UTF-8" standalone="no"?>
<svg
   width="1200pt"
   height="1200pt"
   version="1.1"
   viewBox="0 0 1200 1200"
   id="svg3"
   sodipodi:docname="icon.svg"
   inkscape:version="1.3.2 (091e20ef0f, 2023-11-25, custom)"
   xmlns:inkscape="http://www.inkscape.org/namespaces/inkscape"
   xmlns:sodipodi="http://sodipodi.sourceforge.net/DTD/sodipodi-0.dtd"
   xmlns="http://www.w3.org/2000/svg"
   xmlns:svg="http://www.w3.org/2000/svg">
  <defs
     id="defs3">
    <clipPath
       clipPathUnits="userSpaceOnUse"
       id="clipPath7">
      <rect
         style="fill:#0b0b28;stroke-width:18.4157;stroke-linecap:round;stroke-linejoin:round;paint-order:markers stroke fill"
         id="rect8"
         width="1280.0626"
         height="950.47339"
         x="51.396458"
         y="-440.69708"
         ry="0"
         transform="matrix(0.99796643,0.06374175,-0.19154856,0.98148314,0,0)" />
    </clipPath>
    <clipPath
       clipPathUnits="userSpaceOnUse"
       id="clipPath8">
      <rect
         style="fill:#0b0b28;stroke-width:20;stroke-linecap:round;stroke-linejoin:round;paint-order:markers stroke fill"
         id="rect9"
         width="1197.9221"
         height="1197.9221"
         x="3.1042282e-06"
         y="-1.4924819e-05"
         ry="0" />
    </clipPath>
    <clipPath
       clipPathUnits="userSpaceOnUse"
       id="clipPath9">
      <rect
         style="fill:#0b0b28;stroke-width:26.1085;stroke-linecap:round;stroke-linejoin:round;paint-order:markers stroke fill"
         id="rect10"
         width="1582.516"
         height="1545.3014"
         x="-66.588455"
         y="9.4874773"
         ry="0"
         transform="matrix(0.99796643,0.06374174,-0.19154858,0.98148313,0,0)" />
    </clipPath>
    <clipPath
       clipPathUnits="userSpaceOnUse"
       id="clipPath10">
      <rect
         style="fill:#0b0b28;stroke-width:18.9447;stroke-linecap:round;stroke-linejoin:round;paint-order:markers stroke fill"
         id="rect11"
         width="1134.7102"
         height="1134.7102"
         x="-1132.605"
         y="62.76363"
         ry="0"
         transform="rotate(10.937268)" />
    </clipPath>
    <clipPath
       clipPathUnits="userSpaceOnUse"
       id="clipPath11">
      <rect
         style="fill:#0b0b28;stroke-width:20;stroke-linecap:round;stroke-linejoin:round;paint-order:markers stroke fill"
         id="rect12"
         width="1197.9221"
         height="1197.9221"
         x="3.1042282e-06"
         y="-1.4924819e-05"
         ry="0" />
    </clipPath>
  </defs>
  <sodipodi:namedview
     id="namedview3"
     pagecolor="#ffffff"
     bordercolor="#000000"
     borderopacity="0.25"
     inkscape:showpageshadow="2"
     inkscape:pageopacity="0.0"
     inkscape:pagecheckerboard="0"
     inkscape:deskcolor="#d1d1d1"
     inkscape:document-units="pt"
     inkscape:zoom="0.49937499"
     inkscape:cx="955.19402"
     inkscape:cy="862.07762"
     inkscape:window-width="1920"
     inkscape:window-height="1012"
     inkscape:window-x="0"
     inkscape:window-y="32"
     inkscape:window-maximized="1"
     inkscape:current-layer="g152" />
  <path
     d=""
     style="fill:#aa4d00;stroke-width:1.32915"
     id="path150" />
  <path
     d=""
     style="fill:#aa4d00"
     id="path144" />
  <path
     d=""
     style="fill:#aa4d00"
     id="path143" />
  <path
     d=""
     style="fill:#aa4d00"
     id="path142" />
  <path
     d=""
     style="fill:#aa4d00"
     id="path141" />
  <path
     d=""
     style="fill:#aa4d00"
     id="path140" />
  <path
     d=""
     style="fill:#aa4d00"
     id="path139" />
  <path
     d=""
     style="fill:#aa4d00"
     id="path138" />
  <path
     d=""
     style="fill:#aa4d00"
     id="path137" />
  <path
     d=""
     style="fill:#aa4d00"
     id="path136" />
  <path
     d=""
     style="fill:#aa4d00"
     id="path135" />
  <path
     d=""
     style="fill:#aa4d00"
     id="path134" />
  <path
     d=""
     style="fill:#aa4d00"
     id="path133" />
  <path
     d=""
     style="fill:#aa4d00"
     id="path132" />
  <path
     d=""
     style="fill:#aa4d00"
     id="path131" />
  <path
     d=""
     style="fill:#aa4d00"
     id="path130" />
  <path
     d=""
     style="fill:#aa4d00"
     id="path129" />
  <path
     d=""
     style="fill:#aa4d00"
     id="path128" />
  <path
     d=""
     style="fill:#aa4d00"
     id="path127" />
  <path
     d=""
     style="fill:#aa4d00"
     id="path126" />
  <path
     d=""
     style="fill:#aa4d00"
     id="path125" />
  <path
     d=""
     style="fill:#aa4d00"
     id="path124" />
  <path
     d=""
     style="fill:#aa4d00"
     id="path123" />
  <path
     d=""
     style="fill:#aa4d00"
     id="path122" />
  <path
     d=""
     style="fill:#aa4d00"
     id="path121" />
  <path
     d=""
     style="fill:#aa4d00"
     id="path120" />
  <path
     d=""
     style="fill:#aa4d00"
     id="path119" />
  <path
     d=""
     style="fill:#aa4d00"
     id="path118" />
  <path
     d=""
     style="fill:#aa4d00"
     id="path117" />
  <path
     d=""
     style="fill:#aa4d00"
     id="path116" />
  <path
     d=""
     style="fill:#aa4d00"
     id="path115" />
  <path
     d=""
     style="fill:#aa4d00"
     id="path114" />
  <path
     d=""
     style="fill:#aa4d00"
     id="path113" />
  <path
     d=""
     style="fill:#aa4d00"
     id="path112" />
  <path
     d=""
     style="fill:#aa4d00"
     id="path111" />
  <path
     d=""
     style="fill:#aa4d00"
     id="path110" />
  <path
     d=""
     style="fill:#aa4d00"
     id="path109" />
  <path
     d=""
     style="fill:#aa4d00"
     id="path103" />
  <g
     id="g152"
     transform="translate(32.927046,28.002117)">
    <path
       d="m 538.0333,57.124879 c -15.31253,-0.0967 -30.21583,4.31598 -43.60547,9.35302 -15.48155,4.82141 -30.43361,12.44979 -44.49028,20.02149 -11.7094,5.51767 -22.3418,11.91028 -33.8759,18.363281 -4.1444,2.16993 -8.2889,4.34332 -12.2579,7.44873 -12.804,9.38237 -21.6852,25.13794 -40.2128,28.26416 -1.7968,0.1195 -2.5241,1.11446 -4.1455,2.16943 5.5475,5.3171 8.2216,9.87786 1.9086,15.03663 -5.5898,4.1635 -6.3578,14.63977 -16.5966,13.42675 -0.8984,0.0598 -1.6221,1.05537 -2.3482,2.05078 -2.7193,4.91976 -5.2625,10.7755 -7.8032,16.63038 -5.3951,0.36513 -3.4214,1.18005 -1.6245,1.06054 l 10e-4,-0.001 0.3516,1.8706 -10.7872,0.71778 c 8.0705,4.20213 7.8719,8.00766 3.0044,11.17236 -8.1127,5.27845 -15.1525,11.43222 -17.893,21.09229 0,0 0.1752,0.93542 -0.5479,1.93066 1.9722,0.81598 2.8736,0.75579 4.8457,1.57178 -1.4461,1.99046 -1.9962,3.92455 -3.4424,5.91504 -1.249,-1.81123 -1.4247,-2.74938 -2.8491,-5.4961 -0.021,4.74031 -2.1939,7.7293 -0.9448,9.54053 4.4527,9.18164 -1.8625,14.34086 -3.1567,22.01074 0,0 -3.7726,-0.69689 -6.6431,-1.45312 -0.393,7.60962 0.1087,15.15813 -0.2842,22.76806 -0.5477,1.93073 -2.8937,3.98348 -5.2383,6.03369 -1.4461,1.99049 -2.5447,5.85553 -1.8427,9.60059 2.6106,18.78195 6.1198,37.50469 8.7304,56.28662 0.7019,3.74507 1.7545,9.36191 3.7266,10.17774 10.0426,5.01811 2.0839,15.97149 10.1514,20.17382 -1.6668,10.53564 3.6845,19.6586 9.2109,29.71582 1.6003,3.68533 2.4785,8.36652 8.0713,4.20264 1.2491,1.81123 2.499,3.62549 2.499,3.62549 -6.6666,3.28799 -0.3941,7.60914 1.2056,11.29101 1.249,1.81123 0.8781,4.68173 2.4785,8.36719 -2.1611,-2.26623 -3.3618,-3.74927 -4.3374,-5.04931 1.1791,3.7021 0.1123,10.22476 7.3857,6.73974 2.6741,4.56105 5.3519,9.12246 9.0996,14.55908 -2.8735,-0.75603 -4.8469,-1.57166 -8.7949,-3.20654 4.102,7.31068 8.0266,13.6823 10.7036,18.24317 3.772,0.69627 6.4661,0.51806 10.2378,1.21435 0.9437,-9.54055 -6.5568,-20.41421 -0.2197,-30.31348 6.0742,8.12683 11.4254,17.2497 13.9028,25.61573 2.8282,10.23666 2.0624,20.71256 2.0171,30.19336 0.1542,5.67577 0.1337,10.41608 8.0259,13.6831 4.8456,1.57202 8.7719,7.94695 12.3442,12.44824 1.0737,0.87574 1.4262,2.75061 1.7769,4.62159 -0.1475,-5.42909 -0.964,-9.93667 -1.8018,-14.41553 -0.01,0.006 -0.017,0.013 -0.026,0.019 -0.037,-0.19931 -0.043,-0.4409 -0.081,-0.64014 -1.2279,-6.55151 -1.7336,-14.10279 -3.8598,-20.59423 -4.7792,-15.79282 -10.4618,-31.5305 -5.3526,-47.98096 5.5476,5.31707 12.7171,9.58009 14.8477,16.07519 5.6805,15.73287 9.5621,31.58936 13.4428,47.4419 2.8071,14.97696 4.8927,30.95352 6.8013,45.99023 6.8184,2.39113 12.5652,3.90325 18.3091,5.41553 -0.1753,-0.93549 0.5479,-1.93066 0.5479,-1.93066 3.2247,2.63011 6.2716,4.32202 9.4965,6.95215 -2.2811,-12.171 -3.4886,-23.46277 -6.4922,-34.63477 -4.758,-20.5331 -10.4177,-41.01084 -15.1757,-61.54395 -1.228,-6.55151 -0.6601,-13.2265 -0.4395,-21.77197 8.597,7.01172 16.4882,10.27493 21.3135,16.59082 5.0004,7.25093 9.45033,16.43361 11.0288,24.85547 4.73688,25.2734 8.40131,49.67678 13.13819,74.9502 0.52658,2.80956 3.20014,7.37107 5.17529,8.18701 5.91997,2.45087 13.29012,2.90839 17.96045,3.54492 -3.26728,-32.00796 -7.4371,-63.9577 -10.8794,-96.89941 -0.6808,-8.48553 -1.36066,-16.97223 5.85352,-22.19092 4.12318,2.57037 10.76601,4.02399 12.36621,7.70947 1.47975,3.0513 2.53421,6.30654 3.67529,9.52002 0.75455,2.1048 1.59317,4.1865 2.21924,6.30908 1.26614,4.37087 2.35475,8.75765 3.14063,12.95069 1.92979,10.29641 1.16075,20.77263 3.2666,32.0083 3.66316,24.39781 9.30025,49.61602 13.86181,73.9541 0.15609,0.83275 0.80162,2.10524 1.59375,3.33105 0.30437,0.49095 0.52315,0.63146 0.86866,1.05615 0.37838,0.46365 0.72127,1.05354 1.10888,1.34913 0.13104,-0.0535 0.26875,-0.0672 0.39991,-0.12012 0.28641,0.15544 0.59287,0.7131 0.85254,0.6958 9.16531,0.33758 18.87866,-1.25512 27.86865,-1.85303 l -0.17432,-0.93603 c -3.77192,-0.69628 -8.26747,-0.3965 -12.03955,-1.09278 l -0.35156,-1.8706 4.4956,-0.29883 c -1.42498,-2.74982 -3.57599,-4.50262 -5.00097,-7.25244 3.42124,-1.1747 6.84371,-2.34939 10.43701,-2.58838 -5.39339,0.35871 -14.89016,-6.59222 -13.50733,5.63818 -2.69818,0.17946 -4.67048,-0.63659 -6.46728,-0.51709 1.67197,-2.00706 2.28633,-3.58774 2.19434,-4.91455 -0.27615,-3.98039 -6.90766,-5.67208 -10.39454,-9.70459 10.2389,1.21333 18.68226,2.54926 28.19825,4.75782 0.0211,-4.74031 0.39365,-7.60945 -0.30762,-11.35108 -2.41417,-22.58692 -6.80092,-45.99042 -7.23926,-67.75781 -0.10436,-3.86194 -0.0655,-7.71942 0.12158,-11.53418 0.0757,-1.48082 0.30419,-2.91444 0.44678,-4.37549 0.222,-2.33394 0.50373,-4.64691 0.93604,-6.9082 0.33432,-1.72235 0.83466,-3.38054 1.31689,-5.04639 0.55556,-1.93733 1.23134,-3.8249 2.02002,-5.66748 0.70713,-1.64365 1.52122,-3.24177 2.43896,-4.7959 1.65889,-2.8128 3.40387,-5.59048 5.87403,-8.04346 2.53957,0.96446 4.42258,2.28696 6.24023,3.646 0.94927,0.70895 1.84884,1.44529 2.6294,2.24707 1.01342,1.04361 1.88085,2.16929 2.64404,3.35156 0.56091,0.86521 1.16547,1.7057 1.61133,2.63526 0.67495,1.41476 1.18646,2.92136 1.64209,4.46045 0.24925,0.83612 0.58364,1.62399 0.78076,2.49023 0.54915,2.43067 0.95303,4.94601 1.23047,7.54102 3.46671,28.20278 6.20695,57.40188 9.67383,85.60547 0.52658,2.80956 3.02516,6.43242 5.52685,10.05761 -0.72306,0.99524 -1.27077,2.92852 -4.16601,6.90967 5.76519,-3.22804 9.90938,-5.39746 14.05371,-7.56738 -0.0212,4.74029 -2.0167,8.66467 4.82519,6.31201 4.31967,-1.23444 8.98993,-0.59808 13.30957,-1.83252 2.52287,-1.11494 5.58997,-4.16326 5.06397,-6.96973 -1.90867,-15.03671 -3.99325,-31.01336 -5.89893,-46.05029 -0.71001,-3.78825 -1.28401,-7.52411 -1.69775,-11.2251 -0.21466,-1.95677 -0.22999,-3.87671 -0.32959,-5.81103 -0.0929,-1.71528 -0.25284,-3.44289 -0.24024,-5.1416 0.0227,-2.21869 0.30443,-4.40526 0.53614,-6.59766 0.14453,-1.40201 0.2097,-2.81359 0.45117,-4.20557 0.38087,-2.16971 1.05537,-4.31416 1.69629,-6.46142 0.61669,-2.07236 1.05652,-4.15771 1.94824,-6.21094 2.54401,-5.85523 5.98712,-11.76944 11.57666,-15.93311 2.34753,-2.05041 8.44238,1.33204 13.11328,1.97168 1.5792,8.42578 4.77963,15.79316 4.21143,22.46778 -0.18353,3.5428 0.15661,6.99739 0.34863,10.47656 -0.0896,-0.0482 -0.17847,-0.0866 -0.26807,-0.13477 0.0622,1.16085 0.28143,2.29732 0.37793,3.45264 0.21926,2.61433 0.48907,5.2257 0.85547,7.81787 0.36823,2.62179 0.77523,5.24309 1.24951,7.85157 2.25717,12.32487 5.34217,24.56681 7.19532,37.18066 0.52658,2.80958 -0.94416,9.53994 6.24902,9.06152 3.59659,-0.23919 7.01832,-1.41304 9.71338,-1.59228 6.29178,-0.41846 11.13692,1.15331 15.28125,-1.0166 2.52286,-1.11495 1.2949,-7.67016 3.11279,-12.53028 -5.21805,1.2942 -8.64041,2.46849 -12.95947,3.70606 1.44613,-1.99048 1.99715,-3.92371 2.72021,-4.91895 8.4634,-3.40747 8.1332,-10.01923 5.65577,-18.38525 l -0.87745,-4.68018 c -0.98611,-19.83697 -2.15058,-40.61451 -2.23828,-60.51123 -0.32951,-6.61126 2.21276,-12.46981 3.8584,-18.26513 24.20847,12.6066 28.79279,32.20532 31.75488,52.86181 1.03142,10.35618 3.85852,20.59323 5.78907,30.89356 5.04271,-2.22968 10.08516,-4.46288 14.22949,-6.63282 1.42498,2.74984 1.77584,4.62092 3.0249,6.43213 11.3588,-7.38863 12.32424,-21.66931 2.82861,-28.62158 0.37182,-2.86933 1.82004,-4.86035 1.29346,-7.66992 -1.92981,-10.29643 -4.58141,-19.59811 -6.51123,-29.89453 -1.05259,-5.61604 -1.55804,-13.16669 0.78955,-15.2168 3.07001,-3.04878 9.16487,0.33812 14.53711,4.71973 5.04172,4.11199 11.31767,6.52581 16.51611,10.42236 l -2.30712,-12.31201 c -2.34753,2.05042 -3.96838,3.10956 -5.58985,4.16455 0,0 -0.17533,-0.93578 -1.07373,-0.87598 4.88796,-7.90857 8.88094,-15.75497 13.94385,-22.72851 l 2.14746,1.75195 c -1.64561,5.79548 -3.11202,12.52984 -4.75781,18.3252 0.8984,-0.0598 1.97262,0.81575 2.87402,0.75586 4.21082,-16.39072 16.48828,-28.58419 9.93018,-48.99756 -0.17534,-0.93549 2.522,-1.11383 2.34668,-2.04932 0.72312,-0.99524 0.37263,-2.87072 0.022,-4.7417 4.2985,3.50587 7.16968,4.26302 7.7417,-2.4082 1.11898,-8.60522 1.33612,-17.15173 1.37842,-26.63233 0.39295,-7.60962 -1.36239,-16.97128 3.15673,-22.01074 5.06388,-6.96997 1.66809,-10.53607 -4.60253,-14.85791 2.87351,0.75603 4.66946,0.63714 6.6416,1.45313 0.3718,-2.86934 0.74435,-5.73628 1.11914,-8.60596 -2.32339,-2.69008 -4.82508,-6.3118 -8.22217,-9.87744 0.72306,-0.99524 1.62208,-1.05535 2.34814,-2.05078 2.32339,2.69006 3.57599,4.50162 7.14844,9.00293 0.59307,-11.41122 0.45868,-21.83191 0.50098,-31.3125 l -2.69824,0.18017 c -0.19649,3.80482 -1.47049,6.7305 -1.667,10.53516 -0.89839,0.0598 -1.97217,-0.81551 -3.77197,-0.6958 0.21764,-8.54527 -0.28351,-16.09194 -0.0659,-24.63721 l 3.59619,-0.24023 c 0.70193,3.74505 0.50575,7.55084 1.20704,11.29248 0.89838,-0.0598 1.97168,0.81591 1.97168,0.81591 1.09486,-3.86455 2.19304,-7.73018 3.28857,-11.5913 -8.96898,-4.14239 -11.6425,-8.70324 -9.27393,-15.49366 1.60032,3.68533 3.92657,6.37246 5.52686,10.05762 7.62807,-17.56892 -11.73195,-28.60098 -13.64063,-43.63769 l 7.19385,-0.47901 c 2.38988,-11.53071 -8.57364,-11.75169 -13.57324,-18.99902 1.7968,-0.11951 4.67128,0.63527 8.44336,1.33154 -2.84938,-5.49653 -6.42556,-9.99657 -9.09961,-14.55762 -0.8984,0.0598 -0.72318,0.99499 -1.62158,1.05469 1.42498,2.74984 2.84985,5.49592 3.37646,8.30567 -0.8984,0.0597 -2.52347,1.115 -3.42187,1.1748 -4.27741,-8.24631 -8.72636,-17.42872 -13.1792,-26.61035 3.94725,1.63177 7.8949,3.26791 11.83887,4.8999 -2.67406,-4.56104 -3.20109,-7.37101 -5.52686,-10.05762 -5.17578,-8.18655 -6.38306,-19.47848 -18.59473,-21.51123 -0.8984,0.0598 -2.32222,-2.69 -2.49756,-3.62549 -5.00041,-7.25091 -9.09982,-14.55918 -15.72509,-20.75537 -18.24285,-19.63624 -39.38168,-35.292571 -63.04248,-49.829591 10.17554,15.43391 10.35108,16.373141 5.45947,24.278321 -38.13234,-33.481031 -81.57101,-46.704191 -127.92481,-51.205071 3.94727,1.63175 6.99382,3.32671 10.94092,4.95849 -2.52284,1.11495 -5.39389,0.35905 -8.26758,-0.39697 -5.74404,-1.51227 -12.56619,-3.9027 -18.13476,-4.47949 -2.20104,-0.20919 -4.39698,-0.31579 -6.58447,-0.32959 z M 493.94882,214.89441 c 0.69305,-0.001 1.34979,0.0887 1.95557,0.28564 5.02158,2.51063 11.09484,10.63452 13.22168,17.12989 5.28467,23.34298 9.67035,46.74677 12.98291,69.27392 1.20671,11.29151 2.76511,24.45689 -5.54736,33.54053 -3.79308,4.04401 -9.01115,5.33918 -14.05371,7.56885 -2.51938,1.11778 -4.14317,2.17315 -4.86622,3.16845 l -10e-4,-0.001 c -3.22478,-2.63012 -8.24562,-5.13682 -11.64258,-8.70264 -3.40011,-3.56561 -5.35078,-9.12196 -6.05273,-12.86719 -6.33722,-28.95886 -7.82946,-56.34718 -3.92725,-84.09228 0.74421,-5.73554 0.24166,-13.28628 3.1333,-17.27051 3.31894,-3.53851 9.94655,-8.0229 14.79785,-8.0332 z m 156.52002,4.22461 c 3.02456,6.43173 6.22787,13.80142 8.35401,20.29248 9.23186,24.97444 7.67803,50.67206 7.74463,75.30908 0.50543,7.54988 -2.76115,14.40002 -5.12989,21.19043 -3.46358,10.65513 -13.33133,6.5737 -20.87549,5.18115 -8.44239,-1.3328 -9.12311,-9.81888 -11.07421,-15.375 -10.83222,-28.65991 -8.73088,-56.28723 -4.65381,-83.09619 1.47027,-6.73097 1.51372,-16.21085 9.97705,-19.61865 4.31965,-1.23444 9.71316,-1.59357 15.65771,-3.8833 z M 306.30675,403.13269 c -4.888,7.90858 6.0529,12.86747 7.456,20.354 0.1754,0.93549 3.0488,1.69164 5.0215,2.51075 -0.1753,-0.93549 0.7232,-0.99518 0.5479,-1.93067 -3.9265,-6.37478 -7.8535,-12.75104 -13.0254,-20.93408 z m 385.29051,176.25293 c -3.42125,1.17468 -6.11634,1.35433 -10.25976,3.52734 0,0 -1.62223,1.0557 -2.17237,2.98975 -1.07373,-0.87574 -3.39945,-3.56664 -4.29785,-3.50684 -4.67032,-0.63653 -8.09212,0.53926 -13.48535,0.89795 l 1.9292,10.29639 c 5.04214,-2.23272 9.18619,-4.40376 13.50586,-5.63818 v 10e-4 c 5.89882,7.19117 10.96239,0.21686 16.35937,-0.14209 z m -209.11377,3.24609 c -2.2426,0.32675 -4.53998,1.72288 -6.43213,2.55909 0.17534,0.93546 0.34951,1.87065 1.42383,2.74951 5.57165,0.57658 11.14102,1.15304 16.71094,1.73291 0.72306,-0.99524 0.54754,-1.92986 1.27002,-2.92823 -3.94727,-1.63175 -7.1687,-4.26312 -10.76514,-4.02392 -0.71838,-0.189 -1.45998,-0.19827 -2.20752,-0.0894 z m 142.53809,10.66114 -36.85547,2.45214 c 0.75543,4.03058 2.00783,6.37894 3.61816,7.76807 0.3855,0.33255 0.76079,0.71254 1.19824,0.90967 1.97931,0.89194 4.44199,0.56189 7.54981,-0.96973 0.14429,-0.0495 0.2922,-0.0795 0.43652,-0.1289 h 10e-4 c 1.60325,-0.5488 3.20996,-1.07549 4.85449,-1.40186 1.7181,-0.33571 3.47515,-0.46233 5.31885,-0.12158 3.77191,0.69628 13.50626,-5.63851 13.87793,-8.50781 z m -132.65479,1.23779 c -1.79679,0.1195 -3.24519,2.10999 -5.04199,2.22949 -3.59659,0.23921 -7.3696,-0.45725 -10.96289,-0.21826 l 0.35156,1.87207 c 5.56638,0.58002 13.11127,1.97521 19.75342,3.42773 0.72306,-0.99522 1.44497,-1.99027 1.99512,-3.92431 -1.97214,-0.81599 -4.29842,-3.50622 -6.09522,-3.38672 z m 116.40235,7.06787 c 0.0694,-6.7e-4 0.13836,-4.2e-4 0.208,0 -0.7793,-0.004 -1.54532,0.062 -2.30273,0.17578 0.68966,-0.10444 1.38685,-0.16891 2.09473,-0.17578 z"
       style="stroke-width:20;stroke-linecap:round;stroke-linejoin:round;paint-order:markers stroke fill"
       id="path99" />
    <path
       id="path86"
       style="fill:#d40000"
       d="m 654.71679,236.11082 c -5.94463,2.28976 -11.338,2.64884 -15.65771,3.8833 -8.46344,3.40784 -8.50677,12.88759 -9.97705,19.61865 -4.07712,26.80931 -6.17855,54.43591 4.65381,83.09619 1.95112,5.55619 2.63171,14.04219 11.07421,15.375 7.54426,1.39257 17.41187,5.47412 20.87549,-5.18115 2.36877,-6.7905 5.63532,-13.64045 5.12989,-21.19043 -0.0666,-24.63734 1.48735,-50.33431 -7.74463,-75.30908 -2.12617,-6.49115 -5.32941,-13.86066 -8.35401,-20.29248 z m -156.52002,-4.22461 c -4.85136,0.0103 -11.47887,4.49465 -14.79785,8.0332 -2.89167,3.98427 -2.38908,11.5349 -3.1333,17.27051 -3.90226,27.74543 -2.41005,55.13307 3.92725,84.09228 0.70196,3.74528 2.65258,9.30154 6.05273,12.86719 3.397,3.56587 8.41777,6.07248 11.64258,8.70264 l 0.001,10e-4 c 0.72306,-0.99531 2.34681,-2.05066 4.86622,-3.16845 5.04263,-2.2297 10.26058,-3.52479 14.05371,-7.56885 8.31257,-9.08375 6.75409,-22.24888 5.54736,-33.54053 -3.3126,-22.52742 -7.69818,-45.93066 -12.98291,-69.27392 -2.12687,-6.49545 -8.20004,-14.61923 -13.22168,-17.12989 -0.60579,-0.19691 -1.26251,-0.28712 -1.95557,-0.28564 z m 217.64502,439.00928 c -0.1082,0.49311 -0.25316,0.93675 -0.42773,1.34179 -0.006,0.0142 -0.007,0.0357 -0.0132,0.0498 0.18129,-0.41849 0.3303,-0.879 0.44091,-1.3916 z m -0.44677,1.40478 c -0.008,0.0188 -0.0224,0.0297 -0.0308,0.0483 -0.28959,0.64036 -0.65311,1.18292 -1.05908,1.66846 0.42599,-0.4888 0.7988,-1.04891 1.08985,-1.7168 z M 625.66894,519.83054 c -0.0323,0.35107 -0.0606,0.70198 -0.0908,1.05323 0.0302,-0.35127 0.0589,-0.70204 0.0908,-1.05323 z m 0,0 c -0.0319,0.35119 -0.0607,0.70196 -0.0908,1.05323 0.0302,-0.35124 0.0586,-0.70216 0.0908,-1.05323 z m -0.48486,13.84571 c 0.0498,0.96717 0.0785,1.9311 0.12158,2.89746 -0.0419,-0.96639 -0.0692,-1.93031 -0.12158,-2.89746 z m 0.21387,4.53222 c 0.0221,0.30367 0.0474,0.60756 0.0776,0.9126 -0.0298,-0.30506 -0.0555,-0.60893 -0.0776,-0.9126 z m -41.80518,-41.50195 c 0.10293,0.45558 0.20143,0.91398 0.29443,1.37549 -0.093,-0.46143 -0.19081,-0.92014 -0.29443,-1.37549 z m 0.29443,1.37549 c 0.093,0.46151 0.18054,0.92572 0.26368,1.39307 -0.0829,-0.46748 -0.17069,-0.93164 -0.26368,-1.39307 z m 41.78174,21.74853 c -0.0319,0.35119 -0.0607,0.70196 -0.0908,1.05323 0.0302,-0.35124 0.0586,-0.70216 0.0908,-1.05323 z m -0.27099,18.37793 c 0.0221,0.30367 0.0478,0.60754 0.0776,0.9126 -0.0302,-0.30504 -0.0555,-0.60893 -0.0776,-0.9126 z m -64.35206,-50.26171 c -0.0906,0.17399 -0.17997,0.34787 -0.26806,0.52294 0.0879,-0.17473 0.17771,-0.34928 0.26806,-0.52294 z m 64.62305,31.88378 c -0.0319,0.35119 -0.0607,0.70196 -0.0908,1.05323 0.0302,-0.35124 0.0586,-0.70216 0.0908,-1.05323 z m -0.27099,18.37793 c 0.0221,0.30367 0.0478,0.60754 0.0776,0.9126 -0.0302,-0.30504 -0.0555,-0.60893 -0.0776,-0.9126 z m -64.35206,-50.26171 c -0.0903,0.17366 -0.18017,0.34821 -0.26806,0.52294 0.0881,-0.17507 0.17743,-0.34895 0.26806,-0.52294 z m -1.31396,2.76855 c -0.14863,0.34547 -0.29231,0.69292 -0.43213,1.0415 0.13992,-0.34859 0.28425,-0.69601 0.43213,-1.0415 z m -1.09717,2.79785 c -0.33697,0.94437 -0.64507,1.90095 -0.92285,2.86963 0.28033,-0.9684 0.58702,-1.92518 0.92285,-2.86963 z m 67.03418,26.31738 c -0.0319,0.35119 -0.0607,0.70196 -0.0908,1.05323 0.0302,-0.35124 0.0586,-0.70216 0.0908,-1.05323 z m -0.27099,18.37793 c 0.0221,0.30367 0.0478,0.60754 0.0776,0.9126 -0.0302,-0.30504 -0.0555,-0.60893 -0.0776,-0.9126 z m -64.35206,-50.26171 c -0.0903,0.17366 -0.18017,0.34821 -0.26806,0.52294 0.0881,-0.17506 0.17743,-0.34895 0.26806,-0.52294 z m -4.74023,13.95996 c -0.20421,1.11636 -0.36915,2.24543 -0.51123,3.38232 0.14355,-1.13677 0.30907,-2.26578 0.51123,-3.38232 z m -0.60352,4.14111 c -0.0597,0.50675 -0.11492,1.0155 -0.16699,1.5249 0.0525,-0.50937 0.10783,-1.01813 0.16699,-1.5249 z m 69.9668,13.78271 c -0.0319,0.35119 -0.0607,0.70196 -0.0908,1.05323 0.0302,-0.35124 0.0586,-0.70216 0.0908,-1.05323 z m -0.27099,18.37793 c 0.0221,0.30367 0.0478,0.60754 0.0776,0.9126 -0.0302,-0.30504 -0.0555,-0.60893 -0.0776,-0.9126 z m -64.35206,-50.26171 c -0.0903,0.17366 -0.18017,0.34821 -0.26806,0.52294 0.0881,-0.17506 0.17743,-0.34895 0.26806,-0.52294 z m -4.74023,13.95996 c -0.20216,1.11654 -0.36768,2.24555 -0.51123,3.38232 0.14208,-1.13688 0.30702,-2.26596 0.51123,-3.38232 z m -0.60352,4.14111 c -0.0592,0.50677 -0.11448,1.01553 -0.16699,1.5249 0.0521,-0.5094 0.10731,-1.01815 0.16699,-1.5249 z m -0.68994,6.66504 c -0.14894,2.91442 -0.2013,5.85362 -0.17138,8.80225 -0.028,-2.94771 0.0284,-5.88745 0.17138,-8.80225 z m 70.65674,7.11767 c -0.0319,0.35119 -0.0607,0.70196 -0.0908,1.05323 0.0302,-0.35124 0.0586,-0.70216 0.0908,-1.05323 z m -0.27099,18.37793 c 0.0221,0.30367 0.0478,0.60754 0.0776,0.9126 -0.0302,-0.30504 -0.0555,-0.60893 -0.0776,-0.9126 z m -64.35206,-50.26171 c -0.0903,0.17366 -0.18017,0.34821 -0.26806,0.52294 0.0881,-0.17506 0.17743,-0.34895 0.26806,-0.52294 z m -48.95947,10.8164 c 1.10788,3.82455 2.07939,7.66169 2.83154,11.37012 -0.74918,-3.71563 -1.70174,-7.53971 -2.83154,-11.37012 z m 44.21924,3.14356 c -0.20216,1.11654 -0.36768,2.24555 -0.51123,3.38232 0.14208,-1.13688 0.30702,-2.26596 0.51123,-3.38232 z m -0.60352,4.14111 c -0.0592,0.50677 -0.11448,1.01553 -0.16699,1.5249 0.0521,-0.5094 0.10731,-1.01815 0.16699,-1.5249 z m 69.9668,13.78271 c -0.0319,0.35119 -0.0607,0.70196 -0.0908,1.05323 0.0302,-0.35124 0.0586,-0.70216 0.0908,-1.05323 z m -0.27099,18.37793 c 0.0221,0.30367 0.0478,0.60754 0.0776,0.9126 -0.0302,-0.30504 -0.0555,-0.60893 -0.0776,-0.9126 z m -64.35206,-50.26171 c -0.0903,0.17366 -0.18017,0.34821 -0.26806,0.52294 0.0881,-0.17506 0.17743,-0.34895 0.26806,-0.52294 z m -4.74023,13.95996 c -0.20216,1.11654 -0.36769,2.24555 -0.51123,3.38232 0.14208,-1.13688 0.30702,-2.26596 0.51123,-3.38232 z m -0.60352,4.14111 c -0.0592,0.50677 -0.11448,1.01553 -0.16699,1.5249 0.0521,-0.5094 0.10731,-1.01816 0.16699,-1.5249 z m 69.9668,13.78271 c -0.0319,0.35119 -0.0607,0.70196 -0.0908,1.05323 0.0302,-0.35124 0.0586,-0.70216 0.0908,-1.05323 z m -0.27099,18.37793 c 0.0221,0.30367 0.0478,0.60754 0.0776,0.9126 -0.0302,-0.30504 -0.0555,-0.60893 -0.0776,-0.9126 z m -12.38086,80.38184 c -0.70788,0.007 -1.40507,0.0713 -2.09473,0.17578 0.75741,-0.11383 1.52343,-0.17965 2.30273,-0.17578 -0.0696,-4.2e-4 -0.13858,-6.7e-4 -0.208,0 z m -2.09473,0.17578 c -0.0949,0.0144 -0.18955,0.0295 -0.28418,0.0454 0.0945,-0.0157 0.18944,-0.0312 0.28418,-0.0454 z m -0.28418,0.0454 c -0.0945,0.0159 -0.18849,0.0325 -0.28272,0.0498 0.0942,-0.0171 0.18826,-0.0341 0.28272,-0.0498 z m 2.59131,-0.22119 c 0.0965,5.1e-4 0.19313,0.003 0.29004,0.006 -0.0967,-0.003 -0.19379,-0.005 -0.29004,-0.006 z m 0.29004,0.006 c 0.0979,0.003 0.19612,0.007 0.29443,0.0117 -0.0985,-0.005 -0.19639,-0.009 -0.29443,-0.0117 z m 0.29443,0.0117 c 0.0842,0.004 0.1689,0.009 0.25342,0.0147 -0.0843,-0.006 -0.1694,-0.0103 -0.25342,-0.0147 z M 546.29638,7.321266 c -0.89841,0.05975 -2.34677,2.054865 -3.96826,3.109864 -1.97273,-0.819115 -5.19782,-3.447395 -5.9209,-2.452149 -5.7687,3.228296 -13.11238,-1.968243 -20.85351,0.440918 -9.53766,2.528647 -20.32861,3.24593 -31.29053,3.027832 -6.46688,-0.517053 -13.66033,-0.03853 -19.77686,1.31543 -7.74113,2.409161 -16.38012,4.881681 -25.01953,7.350586 -1.79681,0.119503 -3.77106,-0.696418 -4.49414,0.298828 -8.28816,4.342859 -16.57803,8.681837 -25.0415,12.089355 -18.72408,6.931239 -45.78163,27.686739 -59.52979,46.609859 -12.03917,-1.09326 -11.20409,13.06867 -19.31689,18.34717 -13.70688,9.438551 -24.55991,24.376661 -36.66211,37.504401 -14.99702,17.11218 -27.84411,35.97706 -36.57129,57.40722 -6.00767,16.5104 -11.11667,32.96442 -16.22607,49.41504 -4.01113,12.58566 -6.94725,26.05131 -8.08741,39.39698 -2.12295,32.36438 -1.55453,64.55251 -1.88086,96.7998 0.35068,1.871 1.95045,5.55635 3.55079,9.2417 -1.44557,1.99362 -2.89189,3.98413 -4.88819,7.90869 2.87357,0.75604 4.67038,0.63702 7.54395,1.39307 -5.06399,6.96972 1.77915,43.47951 8.77295,46.80615 -0.55074,1.93095 -2.17148,2.98935 -1.8208,4.86035 1.05327,5.61985 3.00456,11.1751 4.95556,16.73145 3.20074,7.37099 7.47657,15.61416 10.67725,22.98486 l 7.19385,-0.479 0.52734,2.81103 c -2.52231,1.11807 -5.04256,2.23252 -8.46387,3.40723 2.49872,3.62542 8.59399,7.00807 8.22217,9.87744 0.50468,7.54667 7.52271,6.13348 9.12305,9.81885 -8.50886,12.88871 9.99643,14.49926 10.67724,22.98486 -0.90139,0.0599 -2.52246,1.11475 -2.52246,1.11475 10.19768,10.69758 19.31833,20.51586 28.44141,30.33398 -2.69823,0.17946 -4.31983,1.23486 -4.31983,1.23486 4.29778,3.50249 8.59253,7.00759 11.99268,10.57325 4.64905,5.37673 8.3986,10.81748 13.22314,17.12988 1.44857,-1.99382 3.96783,-3.10819 6.49073,-4.22315 2.49874,3.62562 3.92562,6.37141 6.24902,9.06153 -0.72307,0.99525 -0.72317,0.9964 -1.62158,1.05615 -1.24908,-1.81125 -3.3999,-3.5659 -5.54736,-5.31738 l 0.86132,4.59375 c -4.9473,5.99138 -9.49864,12.07149 -13.17627,18.04394 -14.88381,-1.59473 -13.85164,19.06168 -23.88134,26.76123 -16.94556,13.76768 -30.36349,35.5586 -45.3252,54.70752 -14.95337,20.13159 -28.12337,41.96635 -38.34082,66.04541 1.53553,8.64447 3.78901,16.63667 6.93164,23.81983 0.34492,1.37964 1.89744,3.44872 4.65674,6.208 3.1042,2.41439 5.17474,3.96691 6.20947,4.65674 10.34735,-8.96769 19.65963,-18.28144 27.9375,-27.93896 8.62278,-9.65753 17.07418,-18.96981 25.35205,-27.9375 8.27788,-9.31261 16.55563,-18.10835 24.8335,-26.38623 8.27788,-8.27787 17.24579,-15.52256 26.90332,-21.73096 10.00243,-6.2084 21.04089,-11.03672 33.11279,-14.48584 12.41682,-3.79403 26.3867,-5.69092 41.90772,-5.69092 0,0.62503 -0.13209,1.24998 -0.16553,1.875 2.88076,-1.90621 5.73892,-3.78988 8.5752,-5.65722 0.31162,0.22814 0.65814,0.48525 0.96972,0.71338 5.19697,3.44612 14.69204,10.3943 16.13819,8.4038 1.55162,-1.42992 2.98546,-1.96361 4.35644,-2.04345 0.67928,-0.048 1.30895,0.23507 1.95557,0.41601 0.48762,0.14066 1.00482,0.0785 1.47802,0.31348 -0.0456,0.0378 -0.0893,0.0792 -0.13476,0.11719 3.05765,1.47276 5.86621,4.51341 8.77002,5.88574 -4.1736,-1.04799 -8.66369,-1.75657 -13.37549,-2.99707 l 0.3501,1.8706 c 5.9199,2.45108 11.84221,4.89939 18.66064,7.29053 l 2.896,-3.98437 c 3.94743,1.63175 6.99548,3.3235 12.91553,5.77441 l -9.8877,0.65771 c 15.06433,7.529 29.77866,13.1861 44.4917,18.84083 3.94715,1.63177 7.16895,4.2622 10.94092,4.95849 11.31259,2.0891 21.38083,2.37082 32.51806,3.52442 6.64283,1.45564 14.01134,1.91167 20.47852,2.42871 7.36889,0.45706 13.68133,-4.70089 20.52393,-7.0503 -3.94461,-1.63512 -7.89172,-3.26796 -11.31299,-2.09326 -8.46333,3.40751 -8.46287,3.40799 -10.76514,-4.02246 l 26.96924,-1.79297 -0.3501,-1.87207 6.44531,5.25733 c 3.41816,-1.1745 8.08852,-0.53785 9.53467,-2.52832 4.14437,-2.16996 7.03823,-6.15456 12.25635,-7.44873 -0.3724,2.86621 -0.7437,5.7354 -0.56836,6.67089 -7.73739,2.40893 -14.57998,4.75897 -23.04346,8.16651 1.44915,-1.9907 1.09774,-3.86513 1.8208,-4.86035 -3.06971,3.04877 -6.14069,6.09478 -8.47998,8.1416 0.17534,0.9355 1.07418,0.87508 1.24952,1.81054 16.92755,-6.81175 37.95398,-6.3125 51.87744,-24.30029 -0.92256,4.80031 -1.64517,5.79924 -2.19287,7.72998 7.38615,-4.28285 14.95192,-7.62738 22.34179,-11.91064 -1.24908,-1.81125 -1.6005,-3.68516 -1.95117,-5.55616 8.41768,6.07311 16.00457,-2.01219 18.02197,-10.67724 1.25208,1.81104 1.6024,3.68196 3.92578,6.37207 0.0471,-10.02078 9.00969,-8.10979 14.83741,-10.34619 0.96692,-0.36585 1.83597,-0.86114 2.57812,-1.5249 0.18257,-0.17031 0.39604,-0.29954 0.55957,-0.49512 0.85559,-0.98174 1.49649,-2.24862 1.69336,-4.10596 3.79091,-0.81227 7.16847,-2.26118 10.38867,-3.96387 8.17895,6.50648 16.21426,13.64639 24.03516,21.74854 5.97991,-11.40232 5.73935,-13.01654 -6.42773,-34.81494 0.0712,-0.0632 0.14406,-0.12572 0.21533,-0.18897 29.02842,21.09185 54.98941,43.81137 77.40088,72.27393 8.19077,9.03822 13.25793,19.69863 19.43994,30.27539 0.21676,1.36458 1.97867,5.37524 3.08935,5.28809 15.09721,2.9651 16.58899,19.43687 22.9878,31.37841 2.8753,3.91888 3.52611,8.01733 6.83203,14.67041 -4.8759,-2.38053 -9.75677,-4.76529 -14.63672,-7.1455 5.50501,13.39303 11.00682,26.78526 16.29492,38.81396 1.11069,-0.0872 3.11835,-1.62672 4.229,-1.71387 -0.65104,-4.09849 -2.41163,-8.10462 -4.17334,-12.11572 1.11069,-0.0872 0.89322,-1.45093 2.00391,-1.53809 2.45004,4.93068 5.43991,10.01208 8.29541,15.47315 6.9589,-2.68594 11.27051,-5.0063 11.27051,-6.73242 0,-12.07191 -0.69018,-23.79908 -2.06983,-35.18116 -1.03472,-11.72698 -2.24144,-23.45562 -3.62109,-35.18261 -1.37965,-11.72699 -2.76,-23.282 -4.13965,-34.66406 -0.729,-8.26202 -1.10613,-16.40713 -1.32129,-24.49805 -3.21813,-4.87021 -6.40925,-9.75018 -9.67822,-14.60742 -11.71342,-17.05568 -26.32445,-31.11649 -40.71826,-43.81202 -14.39383,-12.6955 -29.68605,-23.94004 -44.97363,-35.18408 -0.80076,-0.6061 -1.60509,-1.1299 -2.40821,-1.67431 2.9144,-2.80999 6.01892,-5.88 8.90479,-8.65137 l 2.14746,1.75049 c 1.09492,-3.86446 2.01478,-8.66342 4.3623,-10.71387 3.96914,-3.10498 8.11313,-5.27891 3.28858,-11.59131 1.62147,-1.055 5.39367,-0.3588 5.9414,-2.28955 3.63879,-9.71989 16.40183,-9.618 17.71729,-22.02832 0.19633,-3.80485 6.13751,-6.09383 9.03223,-10.07812 3.44275,-5.91493 8.85975,-11.01461 8.70556,-16.69043 -1.57918,-8.42572 2.56578,-10.59561 6.35889,-14.63965 3.07056,-3.04523 5.78644,-7.96558 7.78271,-11.89014 0.54716,-1.93387 -1.40378,-7.49005 -0.50537,-7.5498 7.73776,-2.40863 6.15951,-10.83428 7.98047,-15.69434 5.81065,-12.70928 7.49812,-27.98585 11.3335,-41.51074 3.65975,-14.46023 10.19387,-28.16464 12.05713,-42.50537 2.25583,-21.95075 1.64124,-44.65361 2.10058,-66.48487 0.12914,-28.44538 -10.35233,-55.23516 -24.78369,-83.65283 -7.65273,-16.54884 -16.02894,-32.10746 -26.20459,-47.5415 -15.5235,-24.55626 -32.49725,-47.12232 -50.36865,-69.62842 -9.47473,-11.69268 -21.29269,-21.33162 -32.93555,-30.035161 -11.64284,-8.70352 -24.01361,-16.41167 -36.37939,-24.12011 -22.75979,-14.60106 -45.54295,-24.45877 -70.49561,-31.33008 -25.8509,-6.811589 -52.23305,-16.428864 -78.25928,-24.175783 -9.69196,-3.14703 -20.28119,-6.231668 -29.79785,-8.44336 z m -4.01513,66.795413 c 2.1875,0.0138 4.3834,0.1204 6.58447,0.32959 5.56862,0.5768 12.39067,2.9672 18.13476,4.47949 2.87372,0.75603 5.74472,1.51193 8.26758,0.39697 -3.94713,-1.63179 -6.9936,-3.32673 -10.94092,-4.95849 46.35427,4.50092 89.7921,17.72371 127.92481,51.205071 4.89165,-7.90526 4.71618,-8.84425 -5.45947,-24.27832 23.66103,14.53717 44.79945,30.19315 63.04248,49.82959 6.62533,6.19626 10.72463,13.50439 15.72509,20.75537 0.17534,0.9355 1.59916,3.68524 2.49756,3.62549 12.2118,2.03277 13.4189,13.3246 18.59473,21.51123 2.3258,2.68664 2.85277,5.49654 5.52686,10.05762 -3.94402,-1.63201 -7.89159,-3.26811 -11.83887,-4.8999 4.45288,9.18172 8.90175,18.36396 13.1792,26.61035 0.89841,-0.0598 2.52346,-1.11505 3.42187,-1.1748 -0.52662,-2.80978 -1.95147,-5.5558 -3.37646,-8.30567 0.89841,-0.0597 0.72317,-0.99493 1.62158,-1.05469 2.67408,4.5611 6.25019,9.06104 9.09961,14.55762 -3.77212,-0.69628 -6.64654,-1.45105 -8.44336,-1.33154 4.99965,7.2474 15.96315,7.46819 13.57324,18.99902 l -7.19385,0.47901 c 1.9087,15.03686 21.26877,26.0686 13.64063,43.63769 -1.60031,-3.6852 -3.92652,-6.37225 -5.52686,-10.05762 -2.36858,6.79049 0.30486,11.35122 9.27393,15.49366 -1.09554,3.86115 -2.19371,7.72672 -3.28857,11.5913 0,0 -1.0733,-0.87567 -1.97168,-0.81591 -0.70129,-3.74169 -0.50511,-7.5474 -1.20704,-11.29248 l -3.59619,0.24023 c -0.2176,8.54535 0.28358,16.09185 0.0659,24.63721 1.79982,-0.11971 2.87357,0.75555 3.77197,0.6958 0.19651,-3.8047 1.47051,-6.7303 1.667,-10.53516 l 2.69824,-0.18017 c -0.0423,9.48069 0.0921,19.90117 -0.50098,31.3125 -3.57249,-4.50135 -4.82502,-6.31285 -7.14844,-9.00293 -0.72606,0.99544 -1.62507,1.05553 -2.34814,2.05078 3.39712,3.56567 5.89875,7.18733 8.22217,9.87744 -0.37479,2.86971 -0.74733,5.73659 -1.11914,8.60596 -1.97216,-0.816 -3.76807,-0.69709 -6.6416,-1.45313 6.27068,4.32189 9.66646,7.88788 4.60253,14.85791 -4.51916,5.03951 -2.76378,14.40105 -3.15673,22.01074 -0.0423,9.48069 -0.25942,18.02702 -1.37842,26.63233 -0.57203,6.67128 -3.44316,5.9141 -7.7417,2.4082 0.35067,1.871 0.70118,3.74645 -0.022,4.7417 0.17533,0.9355 -2.52202,1.11382 -2.34668,2.04932 6.55816,20.41358 -5.71932,32.60667 -9.93018,48.99756 -0.90141,0.0599 -1.97561,-0.81562 -2.87402,-0.75586 1.6458,-5.79542 3.11218,-12.52966 4.75781,-18.3252 l -2.14746,-1.75195 c -5.06296,6.9736 -9.05584,14.81986 -13.94385,22.72851 0.89841,-0.0598 1.07373,0.87598 1.07373,0.87598 1.62149,-1.055 3.24229,-2.11411 5.58985,-4.16455 l 2.30712,12.31201 c -5.19849,-3.89659 -11.47434,-6.31033 -16.51611,-10.42236 -5.37229,-4.38165 -11.46706,-7.76854 -14.53711,-4.71973 -2.34761,2.05014 -1.84215,9.6007 -0.78955,15.2168 1.92984,10.29653 4.58139,19.598 6.51123,29.89453 0.52659,2.8096 -0.92164,4.80056 -1.29346,7.66992 9.49573,6.95234 8.53031,21.23288 -2.82861,28.62158 -1.24908,-1.81123 -1.5999,-3.68226 -3.0249,-6.43213 -4.14437,2.16996 -9.18673,4.40311 -14.22949,6.63282 -1.93057,-10.30043 -4.75764,-20.53728 -5.78907,-30.89356 -2.96211,-20.6567 -7.54617,-40.25509 -31.75488,-52.86181 -1.64566,5.79537 -4.18792,11.6538 -3.8584,18.26513 0.0877,19.89692 1.25216,40.67406 2.23828,60.51123 l 0.87745,4.68018 c 2.47745,8.3661 2.80772,14.97775 -5.65577,18.38525 -0.72307,0.99525 -1.27406,2.92845 -2.72021,4.91895 4.3191,-1.23758 7.74137,-2.41185 12.95947,-3.70606 -1.81791,4.86017 -0.58991,11.41532 -3.11279,12.53028 -4.14437,2.16992 -8.98941,0.59814 -15.28125,1.0166 -2.69509,0.17924 -6.11675,1.35308 -9.71338,1.59228 -7.19325,0.47842 -5.72244,-6.25191 -6.24902,-9.06152 -1.85317,-12.61398 -4.93812,-24.85567 -7.19532,-37.18066 -0.47429,-2.60851 -0.88128,-5.22975 -1.24951,-7.85157 -0.36641,-2.59219 -0.63621,-5.20351 -0.85547,-7.81787 -0.0965,-1.15534 -0.31573,-2.29178 -0.37793,-3.45264 0.0896,0.0482 0.17844,0.0866 0.26807,0.13477 -0.19202,-3.47921 -0.53216,-6.93373 -0.34863,-10.47656 0.56821,-6.67469 -2.63221,-14.0419 -4.21143,-22.46778 -4.67094,-0.63963 -10.76572,-4.0221 -13.11328,-1.97168 -5.58959,4.16372 -9.03263,10.07782 -11.57666,15.93311 -0.89173,2.05326 -1.33154,4.13856 -1.94824,6.21094 -0.64093,2.14728 -1.31541,4.2917 -1.69629,6.46142 -0.24147,1.39199 -0.30663,2.80354 -0.45117,4.20557 -0.23171,2.19243 -0.5134,4.37894 -0.53614,6.59766 -0.0126,1.69872 0.14729,3.4263 0.24024,5.1416 0.0996,1.93434 0.11493,3.85424 0.32959,5.81103 0.41375,3.70104 0.98773,7.43681 1.69775,11.2251 1.9057,15.03708 3.99024,31.01343 5.89893,46.05029 0.52601,2.8065 -2.54107,5.85478 -5.06397,6.96973 -4.31968,1.23446 -8.98986,0.59806 -13.30957,1.83252 -6.84195,2.35268 -4.84634,-1.57168 -4.82519,-6.31201 -4.14437,2.16994 -8.28847,4.33931 -14.05371,7.56738 2.89526,-3.98119 3.44294,-5.91442 4.16601,-6.90967 -2.50171,-3.62522 -5.00026,-7.24803 -5.52685,-10.05761 -3.46692,-28.20388 -6.20709,-57.40241 -9.67383,-85.60547 -0.27744,-2.59504 -0.68131,-5.11032 -1.23047,-7.54102 -0.19712,-0.86625 -0.5315,-1.6541 -0.78076,-2.49023 -0.45563,-1.53911 -0.96713,-3.04568 -1.64209,-4.46045 -0.44586,-0.92957 -1.05041,-1.77004 -1.61133,-2.63526 -0.7632,-1.18228 -1.63061,-2.30794 -2.64404,-3.35156 -0.78057,-0.80179 -1.68012,-1.53811 -2.6294,-2.24707 -1.81767,-1.35906 -3.70063,-2.68153 -6.24023,-3.646 -2.47019,2.45301 -4.21512,5.23063 -5.87403,8.04346 -0.91774,1.55415 -1.73182,3.15223 -2.43896,4.7959 -0.78869,1.8426 -1.46445,3.73012 -2.02002,5.66748 -0.48224,1.66587 -0.98257,3.32402 -1.31689,5.04639 -0.43231,2.26131 -0.71404,4.57424 -0.93604,6.9082 -0.14259,1.46107 -0.37109,2.89465 -0.44678,4.37549 -0.18705,3.8148 -0.22594,7.6722 -0.12158,11.53418 0.43834,21.76761 4.82506,45.17067 7.23926,67.75781 0.70128,3.74167 0.32876,6.61071 0.30762,11.35108 -9.51608,-2.20858 -17.95925,-3.54448 -28.19825,-4.75782 3.48692,4.03255 10.11839,5.72417 10.39454,9.70459 0.092,1.32682 -0.52235,2.90748 -2.19434,4.91455 1.79682,-0.1195 3.76908,0.69655 6.46728,0.51709 -1.38283,-12.23051 8.11388,-5.27947 13.50733,-5.63818 -3.59334,0.23899 -7.01574,1.41367 -10.43701,2.58838 1.42499,2.74985 3.57598,4.50259 5.00097,7.25244 l -4.4956,0.29883 0.35156,1.8706 c 3.77212,0.69629 8.2676,0.39649 12.03955,1.09278 l 0.17432,0.93603 c -8.99007,0.59792 -18.70325,2.19061 -27.86865,1.85303 -0.25967,0.0173 -0.56612,-0.54036 -0.85254,-0.6958 -0.13116,0.0529 -0.26887,0.0666 -0.39991,0.12012 -0.38762,-0.29559 -0.73049,-0.88548 -1.10888,-1.34913 -0.34551,-0.42468 -0.56429,-0.5652 -0.86866,-1.05615 -0.79213,-1.22583 -1.43766,-2.49829 -1.59375,-3.33105 -4.5616,-24.33832 -10.19862,-49.55605 -13.86181,-73.9541 -2.10588,-11.23578 -1.3368,-21.71179 -3.2666,-32.0083 -0.78589,-4.19309 -1.87448,-8.57978 -3.14063,-12.95069 -0.62608,-2.1226 -1.46468,-4.20425 -2.21924,-6.30908 -1.14109,-3.21351 -2.19552,-6.46869 -3.67529,-9.52002 -1.60022,-3.68552 -8.24299,-5.13907 -12.36621,-7.70947 -7.21425,5.21874 -6.53432,13.70529 -5.85352,22.19092 3.44234,32.94203 7.61209,64.89112 10.8794,96.89941 -4.67038,-0.63654 -12.04042,-1.09403 -17.96045,-3.54492 -1.97518,-0.81595 -4.6487,-5.37743 -5.17529,-8.18701 -4.73693,-25.27367 -8.40126,-49.67654 -13.13819,-74.9502 -1.57848,-8.42194 -6.02832,-17.60447 -11.02881,-24.85547 -4.82537,-6.31595 -12.71637,-9.57903 -21.31347,-16.59082 -0.2206,8.54555 -0.78849,15.2204 0.43945,21.77197 4.75808,20.53331 10.41773,41.01064 15.17578,61.54395 3.00356,11.17212 4.21101,22.46365 6.49219,34.63477 -3.22496,-2.63016 -6.27179,-4.32202 -9.49658,-6.95215 0,0 -0.72319,0.99516 -0.54785,1.93066 -5.74398,-1.5123 -11.49063,-3.02437 -18.30909,-5.41553 -1.90866,-15.03686 -3.99416,-31.01312 -6.80127,-45.99023 -3.88079,-15.8527 -7.76224,-31.70887 -13.44287,-47.4419 -2.13058,-6.49516 -9.30003,-10.75807 -14.84765,-16.07519 -5.10928,16.45062 0.57331,32.18798 5.35254,47.98096 2.12626,6.4915 2.63192,14.04266 3.85986,20.59423 0.0373,0.19924 0.0433,0.44083 0.0806,0.64014 0.009,-0.006 0.0177,-0.013 0.0264,-0.019 0.83783,4.4789 1.65427,8.98638 1.80176,14.41553 -0.35067,-1.871 -0.70314,-3.74584 -1.77685,-4.62159 -3.57235,-4.50133 -7.49855,-10.8762 -12.34424,-12.44824 -7.89224,-3.26705 -7.87169,-8.00728 -8.02588,-13.6831 0.0453,-9.48089 0.81115,-19.95659 -2.01709,-30.19336 -2.47749,-8.36612 -7.8286,-17.48881 -13.90283,-25.61573 -6.33716,9.89936 1.16342,20.77284 0.21972,30.31348 -3.77179,-0.6963 -6.46582,-0.51809 -10.23779,-1.21435 -2.67707,-4.56092 -6.60156,-10.93242 -10.70361,-18.24317 3.94801,1.6349 5.92135,2.45051 8.79492,3.20654 -3.7478,-5.43667 -6.42553,-9.99798 -9.09961,-14.55908 -7.27345,3.48506 -6.20666,-3.03761 -7.38574,-6.73974 0.97559,1.30004 2.17633,2.78306 4.3374,5.04931 -1.60037,-3.68549 -1.22943,-6.55594 -2.47852,-8.36719 -1.59966,-3.6819 -7.87224,-8.00299 -1.20556,-11.29101 0,0 -1.24994,-1.81424 -2.49903,-3.62549 -5.59288,4.16392 -6.47095,-0.51727 -8.07129,-4.20264 -5.52643,-10.05732 -10.87774,-19.18008 -9.21093,-29.71582 -8.06752,-4.20237 -0.1087,-15.15566 -10.15137,-20.17382 -1.97213,-0.81584 -3.02463,-6.43263 -3.72656,-10.17774 -2.61065,-18.78212 -6.11983,-37.50449 -8.73047,-56.28662 -0.70193,-3.7451 0.39663,-7.61008 1.84277,-9.60059 2.34456,-2.05022 4.69054,-4.10294 5.23828,-6.03369 0.39291,-7.61 -0.10878,-15.15837 0.28418,-22.76806 2.87057,0.75624 6.64307,1.45312 6.64307,1.45312 1.29431,-7.66995 7.60947,-12.82901 3.15674,-22.01074 -1.24909,-1.81125 0.92368,-4.80017 0.94482,-9.54053 1.42442,2.74675 1.60005,3.68485 2.84912,5.4961 1.44615,-1.99051 1.99624,-3.92457 3.44239,-5.91504 -1.97216,-0.816 -2.87355,-0.75579 -4.84571,-1.57178 0.72308,-0.99525 0.54785,-1.93066 0.54785,-1.93066 2.74053,-9.66018 9.78027,-15.81379 17.89307,-21.09229 4.86753,-3.16473 5.06611,-6.97019 -3.00439,-11.17236 l 10.78711,-0.71778 -0.35157,-1.8706 -0.001,0.001 c -1.7969,0.11951 -3.77068,-0.6954 1.62451,-1.06054 2.54076,-5.85494 5.08388,-11.71056 7.80322,-16.63038 0.72607,-0.99541 1.44974,-1.99102 2.34815,-2.05078 10.23894,1.21303 11.00674,-9.26321 16.59668,-13.42675 6.31298,-5.15882 3.63892,-9.71948 -1.90869,-15.03663 1.62145,-1.05497 2.34871,-2.04993 4.1455,-2.16943 18.52779,-3.12625 27.40877,-18.8817 40.21289,-28.26416 3.96905,-3.10544 8.11344,-5.27877 12.25782,-7.44873 11.53425,-6.45306 22.16639,-12.84556 33.87597,-18.36328 14.05677,-7.571781 29.00853,-15.200021 44.49024,-20.021491 13.38977,-5.03709 28.29278,-9.44972 43.60547,-9.35302 z M 310.55468,420.12449 c 5.17196,8.18312 9.09888,14.55924 13.02539,20.93408 0.17534,0.9355 -0.72318,0.99517 -0.54785,1.93067 -1.97273,-0.81912 -4.84615,-1.57525 -5.02148,-2.51075 -1.40319,-7.4866 -12.34404,-12.44535 -7.45606,-20.354 z m 385.29053,176.25293 1.5791,8.42578 c -5.39703,0.35895 -10.46049,7.33333 -16.35937,0.14209 v -10e-4 c -4.31971,1.23442 -8.46367,3.40543 -13.50586,5.63818 l -1.9292,-10.29639 c 5.39328,-0.3587 8.81499,-1.53449 13.48535,-0.89795 0.89841,-0.0598 3.2241,2.63109 4.29785,3.50684 0.55015,-1.93407 2.17237,-2.98975 2.17237,-2.98975 4.14346,-2.17302 6.83847,-2.35264 10.25976,-3.52734 z m -209.11377,3.24609 c 0.74755,-0.10891 1.48913,-0.0996 2.20752,0.0894 3.59648,-0.2392 6.81783,2.39216 10.76514,4.02392 -0.72249,0.99838 -0.54695,1.93298 -1.27002,2.92823 -5.56998,-0.57987 -11.13923,-1.15632 -16.71094,-1.73291 -1.07433,-0.87887 -1.24849,-1.81405 -1.42383,-2.74951 1.89217,-0.83622 4.18951,-2.23234 6.43213,-2.55909 z m 142.53809,10.66114 c -0.37167,2.86932 -10.10599,9.2041 -13.87793,8.50781 -1.84372,-0.34075 -3.60073,-0.21414 -5.31885,0.12158 -1.64455,0.32637 -3.25123,0.85306 -4.85449,1.40186 h -10e-4 c -0.14432,0.0494 -0.29223,0.0794 -0.43652,0.1289 -3.10785,1.53164 -5.57048,1.86168 -7.54981,0.96973 -0.43744,-0.19713 -0.81274,-0.57712 -1.19824,-0.90967 -1.61034,-1.38915 -2.86272,-3.73744 -3.61816,-7.76807 z m -132.65479,1.23779 c 1.79682,-0.1195 4.12306,2.57072 6.09522,3.38672 -0.55015,1.93406 -1.27205,2.92909 -1.99512,3.92431 -6.64222,-1.45252 -14.18698,-2.8477 -19.75342,-3.42773 l -0.35156,-1.87207 c 3.59333,-0.23899 7.36626,0.45747 10.96289,0.21826 1.79682,-0.1195 3.24518,-2.10999 5.04199,-2.22949 z m 281.89014,4.82373 c 0.32009,0.2757 0.62549,0.47461 0.62549,0.47461 -0.87035,0.53612 -2.01135,1.26614 -3.1128,1.94238 0.85144,-0.83611 1.64588,-1.59462 2.48731,-2.41699 z m -15.27246,11.77881 c -0.58019,0.35704 -1.0932,0.80703 -1.56738,1.3125 0.47439,-0.50581 0.98688,-0.95526 1.56738,-1.3125 z m -6.08496,13.90722 c -0.66963,0.4748 -1.31354,0.97638 -1.96582,1.46924 0.65331,-0.49278 1.29545,-0.99458 1.96582,-1.46924 z m -4.94678,3.79688 c -2.71667,2.21686 -5.34689,4.51804 -7.94092,6.82031 2.59965,-2.30722 5.20984,-4.59629 7.94092,-6.82031 z m -411.5127,122.35986 c -4.0707,3.54633 -8.07329,7.16012 -12.03662,10.81348 6.2578,-0.38488 9.24093,-5.51083 12.03662,-10.81348 z m 590.85938,8.08301 c 0.30737,2.24645 0.56567,3.897 0.87744,6.19629 3.1042,20.34977 6.20927,41.73505 9.31348,64.1543 3.4491,22.41924 6.55271,43.97816 9.31201,64.67285 3.1042,20.34977 5.69126,38.63145 7.76074,54.84225 l 4.65674,35.69826 c 0.34491,1.7245 0.68927,5.174 1.03418,10.3476 0.34491,4.8289 0.51855,10.1751 0.51855,16.0386 0.34491,5.5186 0.51709,10.6928 0.51709,15.5215 0.34492,4.8288 0.51709,8.2782 0.51709,10.3476 -13.10663,0 -22.07455,-0.5179 -26.90332,-1.5527 -4.48384,-1.0347 -7.41674,-3.1037 -8.79638,-6.208 -1.03474,-3.1042 -1.55127,-7.5881 -1.55127,-13.4517 0,-5.8633 -1.72472,-13.969 -5.17383,-24.3164 -7.41271,5.81 -14.52269,10.8621 -21.47022,15.5083 -0.0552,0.5025 -0.11033,1.0048 -0.16552,1.5074 -0.49959,-0.2439 -1.01703,-0.2948 -1.51172,-0.4468 -0.97514,0.6422 -1.91842,1.2046 -2.88428,1.8237 4.99383,4.9487 6.95044,9.9348 1.875,18.1773 -5.58696,7.3509 -3.41799,21.0064 -3.90381,32.1064 -0.0523,13.8292 -0.32021,26.2941 -1.70361,38.8462 -0.70719,9.7313 -4.25708,8.6281 -9.57129,3.5142 0.43353,2.7292 0.86902,5.4623 -0.0249,6.914 0.21676,1.3647 -3.12009,1.6266 -2.90332,2.9912 l 2.41634,4.979 103.6193,0.6681 c 4.5245,-21.0927 9.4167,-36.8348 11.7202,-57.753 2.78885,-32.0188 2.02925,-65.1355 2.59715,-96.97996 0.1596,-41.4922 -12.79745,-80.56975 -30.63864,-122.02149 -9.46092,-24.13916 -19.81798,-46.83263 -32.39795,-69.3457 -2.32566,-4.3407 -4.75815,-8.51884 -7.13525,-12.7793 z M 327.04169,1136.6745 c -33.23572,-69.1572 -60.02599,-84.783 -60.89374,-90.2459 -0.249,-2.1134 -0.57085,-4.2213 -0.83204,-6.3339 -4.58976,-8.1777 -9.48945,-18.208 -14.85058,-31.0152 -5.8635,-14.83106 -12.07218,-31.73236 -18.62549,-50.70256 -6.2084,-19.3151 -12.41708,-39.14929 -18.62549,-59.49903 -5.48898,-19.3729 -10.61358,-38.74621 -15.49805,-58.11914 -1.45672,5.48531 -2.95096,10.97368 -4.39453,16.45752 -4.95884,18.35815 -8.59097,37.99904 -10.00048,57.46582 l -6.33226,221.34689 z m -5.33662,-351.16085 c -8.01891,7.49864 -15.49784,15.08701 -22.08837,22.82373 -7.93298,8.9677 -13.62512,18.1078 -17.07422,27.42041 2.14669,0.50511 5.36006,1.59144 8.52392,2.65137 3.38942,-3.84767 7.15217,-7.33641 11.26172,-10.49121 6.01764,-4.61626 6.2655,-10.16682 -3.71191,-16.29639 l 13.33447,-1.0459 -0.43359,-2.729 -10e-4,0.003 c -2.22146,0.17432 -4.66315,-1.01572 2.00684,-1.54834 2.67211,-7.26529 5.37382,-14.36223 8.18261,-20.7876 z m -50.02734,105.60352 c -3.675,5.87998 -5.79642,11.66851 -6.51269,17.37451 3.38048,0.9884 7.50878,1.93652 7.50878,1.93652 0.9888,-6.91352 4.33616,-12.43314 5.45948,-18.79834 -2.14636,-0.18028 -4.26095,-0.41516 -6.45557,-0.51269 z m 624.72949,28.44873 c -1.42614,4.82397 -1.34379,8.8675 0.36621,12.4541 0.60593,-2.98596 0.99109,-6.02962 1.18506,-9.12305 -0.52064,-1.10443 -1.10208,-2.11058 -1.55127,-3.33105 z M 403.2003,1092.5857 c -1.77952,-0.3346 -3.71176,-0.2571 -5.73785,0.084 -5.45049,4.2546 -10.69752,5.9476 -15.74423,5.1395 -2.47709,0.8841 -4.88771,1.6427 -7.13698,2.0448 -5.7286,3.6059 -9.28368,-2.2129 -15.35505,-2.417 -2.86435,1.803 -6.46108,6.7551 -12.19321,10.3588 16.08968,-0.7293 28.24276,-0.3163 41.45779,0.763 1.79521,-2.472 8.25477,-9.2263 14.70953,-15.9735 z M 538.38096,647.64787 c -0.009,-9.6e-4 -0.0127,-0.008 -0.0215,-0.009 -0.003,-9.9e-4 -0.006,-9.7e-4 -0.009,-9.5e-4 -0.007,-6.3e-4 -0.0184,0.002 -0.0253,5.7e-4 0.0191,0.003 0.0372,0.006 0.0556,0.009 z m 2.67564,2.20128 c 0.18382,0.34321 0.38704,0.66785 0.49869,1.079 0.015,-0.003 0.0294,-0.005 0.0441,-0.008 0.0441,-0.008 0.0885,-0.0165 0.13218,-0.0231 -0.0957,-0.37326 -0.3507,-0.59603 -0.55404,-0.86774 -0.0431,-0.0576 -0.0845,-0.11643 -0.12092,-0.1804 z m 0.49869,1.079 c -1.55088,0.24042 -3.13144,0.55587 -4.68873,0.8191 1.01568,1.76595 1.99687,3.31211 3.02883,4.90454 0.95935,1.49801 1.89233,2.95483 2.73055,4.42127 -0.39906,-1.42034 -0.46218,-3.20207 -0.52768,-5.0062 -0.0655,-1.80414 -0.13343,-3.63069 -0.54297,-5.13871 z m 98.78676,121.14064 c -1.08199,-0.43082 -2.20044,-0.62974 -3.33723,-0.69159 -1.13681,-0.0619 -2.29125,0.0132 -3.44581,0.13194 -2.30914,0.23738 -4.61751,0.64756 -6.77569,0.47672 -0.61382,0.24743 -1.22938,0.23582 -1.85653,0.066 -0.62716,-0.16976 -1.26635,-0.49781 -1.92426,-0.88269 -1.31582,-0.76979 -2.71013,-1.76754 -4.25338,-2.18504 -0.6138,0.24742 -1.2254,0.84064 -1.99056,1.49605 -0.76515,0.6554 -1.68384,1.373 -2.91252,1.86716 8.02677,1.61843 14.20468,3.29099 20.9993,5.40568 0.60797,-0.93824 3.05311,-3.31288 5.49668,-5.68426 z m 73.40355,-97.5566 c -0.5212,0.46616 -1.10536,0.85095 -1.7417,1.16455 0.6399,-0.31003 1.22882,-0.68611 1.7417,-1.16455 z M 343.89013,596.86228 c -0.4899,0.80375 -0.95985,1.60228 -1.4414,2.40967 1.2633,1.10024 2.43217,2.207 3.2124,3.33838 0.89839,-0.0598 0.89853,-0.0609 1.62158,-1.05615 -1.28336,-1.48592 -2.32456,-3.03311 -3.39258,-4.6919 z m 354.28125,284.53617 c -6.07514,-0.20643 -9.28183,-2.21386 -18.22701,-0.60873 0,0 -3.9336,1.13235 -8.60259,5.41335 0.726,-3.14103 3.97636,-11.90647 2.90724,-12.57552 -3.55376,-5.81966 -9.62894,-6.02637 -16.04686,-10.04286 l -19.76007,27.21038 c 10.01335,-0.93552 18.953,-2.5315 26.09688,-1.65669 -9.02472,23.14063 11.04263,10.50513 17.46495,14.52447 z M 472.91353,699.89779 c -0.30041,-0.24197 -0.64522,-0.43674 -1.02581,-0.59058 -3.04438,-1.23118 -8.40765,0.13102 -12.16214,0.47794 -1.7953,2.47215 -3.59119,4.94406 -4.32328,8.09341 4.62599,6.49047 9.24964,12.97794 13.86689,19.47491 2.8632,-1.80291 4.65897,-4.27386 7.5286,-6.08467 -0.68951,-7.62262 1.49718,-17.05435 -2.78251,-19.73279 -0.22125,-0.70017 -0.60106,-1.23492 -1.10175,-1.63822 z m 125.9786,155.35409 -43.85637,-27.44665 c -2.86469,3.94477 -5.25063,7.44996 -7.18851,10.5544 5.61455,0.43241 10.90889,1.24058 15.72541,2.60483 -4.27419,5.41465 -8.47101,11.41351 -12.69032,17.24587 0.27058,-0.0336 0.53801,-0.0651 0.81944,-0.10667 6.07515,0.20644 12.15207,0.41219 14.63287,5.56028 2.48471,5.15056 26.09696,-1.65661 32.55748,-8.41206 z M 457.26971,737.85716 c -0.0569,-0.0555 -0.11897,-0.10465 -0.18559,-0.14671 -2.13814,-1.33814 -7.86996,2.26474 -10.00813,0.92659 -4.27993,-2.6785 -6.76537,-7.82893 -11.04138,-10.50495 l -3.59037,4.94335 c 4.61357,6.49455 9.57649,16.80597 13.47302,26.43541 2.86426,-1.80295 5.72899,-3.60712 10.39807,-7.8882 -0.33216,-3.69124 2.70786,-12.0311 0.95422,-13.7653 z m 114.72781,143.72713 -26.05496,-16.30564 c -1.75339,2.47977 -3.50473,4.97274 -5.25016,7.51284 l 25.91271,16.2168 z m -16.55137,29.21517 c -10.93348,-4.33146 -21.29609,-8.31058 -31.55125,-12.22452 -0.16277,0.26672 -0.33134,0.4902 -0.49396,0.75801 -0.6707,1.10475 -1.32877,2.26091 -1.99902,3.36749 8.59732,6.56835 17.98396,12.4433 26.85748,17.99658 z m 0,0 c -10.93348,-4.33146 -21.29609,-8.31058 -31.55125,-12.22452 10.25515,3.91393 20.61779,7.89306 31.55125,12.22452 z m -7.18675,9.89756 c -4.23558,-2.65074 -8.59227,-5.38828 -12.92003,-8.22603 4.32962,2.83895 8.68264,5.57416 12.92003,8.22603 z m -13.7267,-8.75292 c -4.45897,-2.94112 -8.88439,-6.00094 -13.11656,-9.23362 4.23268,3.23308 8.657,6.29226 13.11656,9.23362 z" />
    <path
       d="m 187.01885,616.98959 c -8.9679,0 -15.5207,2.2427 -19.6597,6.7266 -3.7941,4.139 -6.5532,9.4851 -8.2778,16.0386 -1.3797,6.5534 -1.8977,13.6242 -1.5527,21.2124 0.3449,7.5881 0.517,14.6589 0.517,21.2124 0,6.8983 1.0345,17.2463 3.104,31.0429 2.4145,13.7967 5.5194,29.8352 9.3135,48.1158 4.139,17.9356 8.6228,37.4234 13.4517,58.4633 5.1737,20.6951 10.6921,41.3895 16.5556,62.0845 6.2086,20.3501 12.417,40.18365 18.6255,59.49905 6.5535,18.9705 12.7619,35.8712 18.6255,50.7026 6.2085,14.83146 11.9005,26.55826 17.0742,35.18116 5.5187,8.6229 10.5191,12.9346 15.003,12.9346 0.6898,0 2.2423,-0.3444 4.6567,-1.0342 2.4144,-0.6899 4.6571,-1.7258 6.7266,-3.1055 2.4144,-1.3797 4.4834,-2.5864 6.208,-3.6211 2.0695,-1.3797 3.4498,-2.5863 4.1396,-3.6211 4.4839,-10.6924 6.035,-20.8682 4.6553,-30.52586 -1.3797,-9.6577 -4.1388,-18.7975 -8.2778,-27.4204 -4.139,-8.9678 -8.9672,-17.4189 -14.4859,-25.352 -5.5186,-8.278 -10.3483,-16.2111 -14.4873,-23.7993 -3.7941,-7.93315 -6.0352,-15.69405 -6.7251,-23.28225 -0.6898,-7.9331 1.5514,-16.0384 6.7251,-24.3164 15.5213,0.6898 29.8351,3.449 42.9419,8.2778 13.4518,4.4839 26.3867,10.5202 38.8037,18.1084 12.417,7.2433 24.4896,15.0042 36.2168,23.28225 12.0721,7.9331 24.1433,15.6941 36.2154,23.2822 12.0721,7.2433 24.4905,13.4517 37.2524,18.6255 12.76193,4.8288 26.38556,7.4158 40.87208,7.7607 3.79408,0 6.55324,-1.2081 8.27783,-3.6225 1.72459,-2.7593 2.75908,-5.8628 3.104,-9.312 0.68983,-3.4491 1.03565,-6.7263 1.03565,-9.8306 v -6.7251 c 0,-4.8289 -5.0018,-11.0373 -15.0044,-18.6255 -9.65767,-7.93305 -22.2468,-16.21205 -37.76806,-24.83495 -15.5213,-8.9678 -32.5957,-17.9355 -51.2212,-26.9033 -18.6255,-8.9679 -36.733,-17.2453 -54.3237,-24.8335 -17.2459,-7.9331 -32.7678,-14.4874 -46.5645,-19.6611 -13.4517,-5.5187 -23.1095,-8.968 -28.9731,-10.3477 3.4491,-9.3128 9.1411,-18.4526 17.0742,-27.4204 7.9331,-9.3128 16.9007,-18.4526 26.9033,-27.4204 10.0026,-9.3128 20.3506,-18.2819 31.043,-26.9048 10.6924,-8.9679 20.5224,-17.5897 29.4902,-25.8677 8.9679,-8.6229 16.383,-17.074 22.2466,-25.352 5.8636,-8.278 8.7964,-16.5555 8.7964,-24.8335 -15.5213,0 -29.4907,1.8968 -41.9077,5.6909 -12.0721,3.4492 -23.1102,8.2773 -33.1128,14.4858 -9.6577,6.2085 -18.6253,13.453 -26.9033,21.731 -8.278,8.278 -16.5555,17.0735 -24.8335,26.3862 -8.2781,8.9679 -16.7292,18.2798 -25.3521,27.9375 -8.278,9.6577 -17.59,18.9711 -27.9375,27.939 -1.0347,-0.6899 -3.1052,-2.2423 -6.2095,-4.6568 -2.7593,-2.7593 -4.3118,-4.8283 -4.6567,-6.208 -4.8288,-11.0373 -7.7602,-23.8001 -8.7949,-38.2866 l -2.0698,-43.459 c -0.6899,-14.8314 -2.0687,-28.8009 -4.1382,-41.9077 -1.7246,-13.4518 -5.8641,-24.662 -12.4175,-33.6299 z m 704.20605,20.8242 c -5.0013,-0.2586 -11.03614,0.9054 -18.10694,3.4922 v 33.6299 c 0,11.3823 0.51652,22.9369 1.55127,34.6641 1.37967,11.3822 2.75998,22.9369 4.13965,34.664 1.37967,11.7272 2.58635,23.4555 3.62109,35.1827 1.37967,11.3822 2.06983,23.109 2.06983,35.1811 0,2.0695 -5.00181,4.8287 -15.0044,8.2778 -10.0026,3.1043 -22.41955,7.4159 -37.25097,12.9346 -14.83144,5.1738 -30.86987,11.8988 -48.11573,20.1768 -17.24585,7.9331 -33.28428,17.7645 -48.11572,29.4917 -14.83143,11.3822 -27.24838,24.8337 -37.25097,40.35495 -10.0026,15.5213 -15.0044,33.2844 -15.0044,53.2896 0,12.417 2.41481,22.76486 7.24365,31.04286 4.82884,8.278 11.20949,14.8308 19.14258,19.6597 7.93309,4.8289 16.90073,8.2782 26.90332,10.3477 10.34751,1.7245 21.03981,2.5869 32.07715,2.5869 13.10685,0 25.35163,-0.8624 36.73389,-2.5869 11.72718,-1.3797 23.2818,-3.9667 34.66406,-7.7608 11.38226,-4.139 22.76471,-9.4851 34.14697,-16.0386 11.38226,-6.5534 23.45487,-14.8309 36.2168,-24.83346 3.44917,10.34746 5.17383,18.45296 5.17383,24.31636 0,5.8636 0.51652,10.3474 1.55127,13.4517 1.37967,3.1043 4.31246,5.1733 8.79638,6.208 4.82884,1.0348 13.79648,1.5527 26.90332,1.5527 0,-2.0695 -0.17217,-5.5187 -0.51709,-10.3476 0,-4.8288 -0.17218,-10.0028 -0.51709,-15.5215 0,-5.8636 -0.17363,-11.2097 -0.51855,-16.03856 -0.34491,-5.1737 -0.68926,-8.623 -1.03418,-10.3476 l -4.65674,-35.6983 c -2.06951,-16.2111 -4.65649,-34.49215 -7.76074,-54.84225 -2.75934,-20.695 -5.86285,-42.2533 -9.31201,-64.6729 -3.10426,-22.4196 -6.20923,-43.8042 -9.31348,-64.1543 -2.75934,-20.3501 -5.34632,-38.6297 -7.76074,-54.8408 -2.41442,-16.2111 -4.31125,-28.1115 -5.69092,-35.6997 4.13901,-15.1763 3.1045,-25.8686 -3.104,-32.0771 -2.9318,-3.1043 -6.8991,-4.7863 -11.90039,-5.045 z m -286.65381,136.459 c -6.20851,2.0695 -12.41845,4.8287 -18.62696,8.2779 -5.86358,3.4491 -10.69175,7.933 -14.48584,13.4516 0,2.0695 -0.17217,5.5188 -0.51709,10.3477 0,4.8288 -0.17218,9.8292 -0.51709,15.0029 0,5.1738 -0.17363,10.1756 -0.51855,15.0044 v 9.8306 27.9375 c 0.34492,12.0721 0.86291,25.3513 1.55273,39.8379 1.03475,14.48645 2.75942,29.31835 5.17383,44.49455 2.41442,14.8315 5.51793,28.4566 9.31201,40.8736 4.13901,12.07206 9.48662,22.07416 16.04004,30.00726 6.55343,7.9331 14.65873,11.8989 24.31641,11.8989 15.86617,0 23.79932,-7.7594 23.79932,-23.2807 0,-17.9357 -2.24264,-37.25116 -6.72657,-57.94626 -4.139,-20.695 -8.96717,-41.56315 -14.48584,-62.60305 -5.51867,-21.3849 -10.69265,-42.5973 -15.52148,-63.6372 -4.82885,-21.0399 -7.76017,-40.8721 -8.79492,-59.4976 z m 253.54248,98.8184 c 10.69242,0 17.9354,2.069 21.72949,6.208 3.79409,4.139 5.69092,11.5556 5.69092,22.248 0,13.7967 -3.96585,26.55805 -11.89893,38.28525 -7.58818,11.7271 -17.41813,21.9029 -29.49023,30.5258 -11.72718,8.278 -24.66212,14.8309 -38.80371,19.6597 -13.79668,4.4839 -26.73162,6.7266 -38.80371,6.7266 -4.13901,0 -8.44918,-0.3459 -12.93311,-1.0357 -4.13901,-1.0347 -8.1063,-2.7593 -11.90039,-5.1738 -3.79409,-2.4144 -6.89759,-5.3457 -9.31201,-8.7949 -2.41443,-3.4491 -3.62256,-7.933 -3.62256,-13.4517 0,-12.762 4.65599,-24.8345 13.96875,-36.2168 9.31276,-11.7272 20.69522,-21.90155 34.14697,-30.52445 13.79668,-8.6229 27.93829,-15.5215 42.42481,-20.6953 14.83142,-5.1737 27.76636,-7.7607 38.80371,-7.7607 z"
       style="font-size:529.793px;font-family:'Gloria Hallelujah';-inkscape-font-specification:'Gloria Hallelujah';letter-spacing:24.863px;stroke:#d40000;stroke-width:50;stroke-linecap:round;stroke-linejoin:round;paint-order:markers stroke fill;stroke-opacity:1"
       id="path85" />
  </g>
</svg>
