<?xml version="1.0" encoding="UTF-8"?>
<svg width="1200pt" height="1200pt" version="1.1" viewBox="0 0 1200 1200" xmlns="http://www.w3.org/2000/svg">
 <g>
  <path d="m316.04 394.09c-5.0898-0.003906-9.9727-2.0273-13.57-5.6289l-65.902-65.891-41.293 41.293v-0.003907c-4.8516 4.8281-11.906 6.707-18.516 4.9336s-11.777-6.9297-13.562-13.535l-61.75-230.29c-1.1719-4.3633-0.76562-8.9961 1.1406-13.09s5.1953-7.3828 9.2891-9.2891 8.7266-2.3125 13.09-1.1406l230.23 61.75c6.625 1.7773 11.797 6.9492 13.574 13.57 1.7773 6.6211-0.11328 13.691-4.957 18.543l-41.293 41.293 65.891 65.902c3.6016 3.6016 5.6211 8.4805 5.6211 13.57 0 5.0938-2.0195 9.9727-5.6211 13.574l-58.801 58.801h0.003907c-3.5977 3.6055-8.4805 5.6328-13.574 5.6406zm-79.477-117.88v-0.003906c5.0977-0.007813 9.9883 2.0195 13.586 5.6289l65.891 65.891 31.691-31.691-65.891-65.891c-3.6016-3.6016-5.625-8.4844-5.625-13.578s2.0234-9.9766 5.625-13.578l31.355-31.355-83.016-22.234-83.016-22.246 44.473 166.04 31.355-31.355c3.5938-3.6094 8.4805-5.6367 13.57-5.6289z"/>
  <path d="m883.96 394.09c-5.0938-0.003906-9.9727-2.0273-13.574-5.6289l-58.801-58.801h0.003907c-3.6016-3.6016-5.6211-8.4805-5.6211-13.57s2.0195-9.9727 5.6211-13.574l65.891-65.902-41.293-41.293c-3.1914-3.1914-5.1562-7.4102-5.5508-11.906-0.39062-4.4961 0.8125-8.9883 3.4023-12.688 2.5938-3.6992 6.4023-6.3633 10.766-7.5312l115.14-30.852 115.2-30.863c4.3594-1.1719 8.9961-0.76562 13.086 1.1406 4.0938 1.9102 7.3828 5.1992 9.293 9.2891 1.9062 4.0938 2.3125 8.7305 1.1406 13.09l-61.859 230.26c-1.7773 6.6211-6.9531 11.789-13.574 13.562-6.6211 1.7773-13.688-0.11328-18.539-4.9609l-41.293-41.293-65.902 65.891v0.003906c-3.5898 3.5898-8.457 5.6172-13.535 5.6289zm-31.691-78 31.691 31.691 65.891-65.891v-0.003906c3.6016-3.6016 8.4844-5.625 13.578-5.625s9.9766 2.0234 13.578 5.625l31.355 31.309 44.484-166.04-83.016 22.246-83.027 22.238 31.344 31.355c3.6016 3.6016 5.625 8.4844 5.625 13.578s-2.0234 9.9766-5.625 13.578z"/>
  <path d="m120 1099.2c-5.9688 0.003906-11.602-2.7734-15.234-7.5078-3.6367-4.7344-4.8633-10.895-3.3164-16.66l61.75-230.23c1.7773-6.6211 6.9531-11.793 13.574-13.566 6.6211-1.7734 13.688 0.11719 18.539 4.9609l41.293 41.293 65.902-65.891c3.6016-3.6016 8.4805-5.6211 13.57-5.6211 5.0938 0 9.9727 2.0195 13.574 5.6211l58.801 58.801v-0.003907c3.5977 3.6016 5.6172 8.4844 5.6172 13.574s-2.0195 9.9727-5.6172 13.57l-65.891 65.902 41.293 41.293h-0.003907c4.8203 4.8594 6.6875 11.918 4.9062 18.523-1.7852 6.6094-6.9492 11.766-13.559 13.543l-115.2 30.852-115.14 30.863c-1.5859 0.43359-3.2188 0.66016-4.8594 0.68359zm71.641-212.4-44.484 166.04 83.016-22.246 83.027-22.238-31.344-31.355c-3.6016-3.6016-5.625-8.4844-5.625-13.578s2.0234-9.9766 5.625-13.578l65.891-65.891-31.691-31.691-65.891 65.891c-3.6016 3.6016-8.4844 5.625-13.578 5.625s-9.9766-2.0234-13.578-5.625z"/>
  <path d="m1080 1099.2c-1.6758 0-3.3477-0.21875-4.9688-0.64844l-230.23-61.75c-6.625-1.7773-11.797-6.9492-13.574-13.57-1.7773-6.6211 0.11328-13.691 4.957-18.543l41.293-41.293-65.891-65.902c-3.6016-3.6016-5.6211-8.4805-5.6211-13.57 0-5.0938 2.0195-9.9727 5.6211-13.574l58.801-58.801h-0.003907c3.6016-3.5977 8.4844-5.6172 13.574-5.6172 5.0898 0 9.9688 2.0195 13.57 5.6172l65.902 65.891 41.293-41.293v0.003907c4.8594-4.8242 11.922-6.6992 18.531-4.9141 6.6133 1.7812 11.773 6.9531 13.547 13.566l61.715 230.29c1.5195 5.75 0.28906 11.883-3.3359 16.602-3.6211 4.7188-9.2305 7.4922-15.18 7.5039zm-193.2-90.84 83.016 22.234 83.016 22.246-44.473-166.04-31.355 31.355c-3.6016 3.6016-8.4844 5.625-13.578 5.625s-9.9766-2.0234-13.578-5.625l-65.891-65.891-31.691 31.691 65.891 65.891c3.6016 3.6016 5.625 8.4844 5.625 13.578s-2.0234 9.9766-5.625 13.578z"/>
  <path d="m765.39 784.6h-330.79c-5.0938 0-9.9766-2.0234-13.578-5.625-3.6016-3.6016-5.625-8.4844-5.625-13.578v-330.79c0-5.0938 2.0234-9.9766 5.625-13.578 3.6016-3.6016 8.4844-5.625 13.578-5.625h330.79c5.0938 0 9.9766 2.0234 13.578 5.625 3.6016 3.6016 5.625 8.4844 5.625 13.578v330.79c0 5.0938-2.0234 9.9766-5.625 13.578-3.6016 3.6016-8.4844 5.625-13.578 5.625zm-311.59-38.398 292.39-0.003907v-292.39h-292.39z"/>
 </g>
</svg>
